# xmcd
#
# Track frame offsets:
# 150
# 10184
# 22979
# 35047
# 56100
# 66985
# 82182
# 96547
# 111405
# 129698
# 143549
# 158108
# 171685
# 201831
#
# Disc length: 2987 seconds
#
# Revision: 1
# Processed by: cddbd v1.5.1PL0 Copyright (c) Steve Scherf et al.
# Submitted via: CedeCatalogueitor 2.6.0.6 http://personales.ya.com/cdcatalogueitor
#
DISCID=d20ba90e
DTITLE=JAVIER ALVAREZ - "Dos"  (FUNDAMENTALES)
DYEAR=2004
DGENRE=
TTITLE0=Sunset Boulevard
TTITLE1=Sombra Mía
TTITLE2=Ella Diciendo Sí
TTITLE3=Barrio
TTITLE4=Tanta Calma
TTITLE5=Mamá
TTITLE6=Los Hay
TTITLE7=Ya No Te Acuerdas De Mí
TTITLE8=Gipsy
TTITLE9=Por Ahora
TTITLE10=Fantasma
TTITLE11=Domingo Menos Dos
TTITLE12=Si Cierro Los Ojos
TTITLE13=----DATOS----
EXTD=
EXTT0=
EXTT1=
EXTT2=
EXTT3=
EXTT4=
EXTT5=
EXTT6=
EXTT7=
EXTT8=
EXTT9=
EXTT10=
EXTT11=
EXTT12=
EXTT13=
PLAYORDER=
